<?xml version="1.0" standalone="no"?>
<!DOCTYPE svg PUBLIC "-//W3C//DTD SVG 20010904//EN"
 "http://www.w3.org/TR/2001/REC-SVG-20010904/DTD/svg10.dtd">
<svg version="1.0" xmlns="http://www.w3.org/2000/svg"
 width="32.000000pt" height="32.000000pt" viewBox="0 0 32.000000 32.000000"
 preserveAspectRatio="xMidYMid meet">

<g transform="translate(0.000000,32.000000) scale(0.100000,-0.100000)"
fill="#000000" stroke="none">
<path d="M125 311 c-6 -5 -23 -11 -40 -13 -16 -2 -30 -9 -29 -15 1 -7 2 -74 3
-148 l1 -135 100 0 100 0 2 135 c0 74 1 141 2 148 1 6 -12 13 -29 15 -16 2
-34 8 -40 13 -5 5 -21 9 -35 9 -14 0 -30 -4 -35 -9z m53 -8 c-10 -2 -26 -2
-35 0 -10 3 -2 5 17 5 19 0 27 -2 18 -5z m-8 -23 c-48 -5 -51 -7 -28 -14 l27
-8 0 -110 c-1 -60 2 -112 5 -116 16 -15 1 -22 -49 -22 l-55 0 0 124 c0 68 -3
131 -6 140 -5 14 5 16 77 14 79 -1 81 -2 29 -8z"/>
<path d="M137 243 c-10 -9 -9 -201 1 -206 4 -3 7 44 7 104 1 60 0 109 0 109
-1 0 -5 -3 -8 -7z"/>
</g>
</svg>
