<?xml version="1.0" standalone="no"?>
<!DOCTYPE svg PUBLIC "-//W3C//DTD SVG 20010904//EN"
 "http://www.w3.org/TR/2001/REC-SVG-20010904/DTD/svg10.dtd">
<svg version="1.0" xmlns="http://www.w3.org/2000/svg"
 width="32.000000pt" height="32.000000pt" viewBox="0 0 32.000000 32.000000"
 preserveAspectRatio="xMidYMid meet">

<g transform="translate(0.000000,32.000000) scale(0.100000,-0.100000)"
fill="#000000" stroke="none">
<path d="M125 311 c-6 -5 -23 -11 -40 -13 -24 -2 -29 -7 -27 -25 2 -12 -4 -35
-12 -52 -21 -40 -20 -105 3 -166 l19 -50 92 0 92 0 19 50 c23 61 24 126 3 166
-8 17 -14 40 -12 52 2 18 -3 23 -27 25 -16 2 -34 8 -40 13 -5 5 -21 9 -35 9
-14 0 -30 -4 -35 -9z m53 -8 c-10 -2 -26 -2 -35 0 -10 3 -2 5 17 5 19 0 27 -2
18 -5z m4 -20 c-23 -2 -61 -2 -85 0 -23 2 -4 4 43 4 47 0 66 -2 42 -4z m-2
-23 c-12 -8 -12 -10 -1 -10 11 0 11 -3 1 -15 -10 -12 -10 -15 1 -15 9 0 10 -3
3 -8 -6 -4 -10 -19 -9 -34 1 -16 -2 -28 -6 -28 -4 0 -6 -9 -4 -20 2 -11 -1
-20 -6 -20 -6 0 -7 -4 -4 -10 3 -5 2 -10 -4 -10 -18 0 -24 50 -13 99 13 59 7
67 -8 10 -13 -48 -5 -133 12 -123 6 4 6 -2 -1 -15 -17 -31 -26 -26 -44 26 -9
27 -15 36 -12 21 3 -15 9 -37 14 -50 11 -31 9 -42 -9 -45 -20 -3 -50 79 -50
133 0 21 8 58 18 81 l17 43 60 0 c42 0 56 -3 45 -10z"/>
</g>
</svg>
